<?xml version="1.0" encoding="utf-8"?>
<!-- Generator: Adobe Illustrator 24.1.1, SVG Export Plug-In . SVG Version: 6.00 Build 0)  -->
<svg version="1.1" id="Calque_1" xmlns="http://www.w3.org/2000/svg" xmlns:xlink="http://www.w3.org/1999/xlink" x="0px" y="0px"
	 viewBox="0 0 424.33 228.72" style="enable-background:new 0 0 424.33 228.72;" xml:space="preserve">
<style type="text/css">
	.st0{fill:#273375;}
	.st1{fill:#000091;}
	.st2{fill:#E1000F;}
	.st3{fill:#9D9D9C;}
</style>
<g>
	<path class="st0" d="M33.95,30.7h7.96l11.34,29.95h-6.46l-2.87-7.79H31.94l-2.87,7.79h-6.46L33.95,30.7z M42.03,47.69l-4.11-11.25
		l-4.11,11.25H42.03z"/>
	<path class="st0" d="M78.34,53.21v-5.05h-7.62v-5.52h13.69v12.75c-2.78,3.72-7.45,6.12-13.05,6.12c-9.71,0-16.34-7.27-16.34-15.83
		c0-8.56,6.46-15.83,15.92-15.83c5.43,0,9.88,2.44,12.62,6.08l-4.79,3.72c-1.71-2.44-4.41-4.11-7.83-4.11
		c-5.65,0-9.67,4.41-9.67,10.14c0,5.73,4.24,10.14,10.1,10.14C74.19,55.82,76.63,54.83,78.34,53.21z"/>
	<path class="st0" d="M91.59,30.7h17.46v5.18H97.66v6.93h9.67v5.18h-9.67v7.49h11.38v5.18H91.59V30.7z"/>
	<path class="st0" d="M116.52,30.7h7.79l13.39,21.43V30.7h6.08v29.95h-7.79l-13.39-21.52v21.52h-6.07V30.7z"/>
	<path class="st0" d="M173.74,51.71l4.79,3.68c-2.74,3.72-7.19,6.12-12.62,6.12c-9.46,0-15.92-7.27-15.92-15.83
		c0-8.56,6.46-15.83,15.92-15.83c5.43,0,9.88,2.44,12.62,6.08l-4.79,3.72c-1.71-2.44-4.41-4.11-7.83-4.11
		c-5.65,0-9.67,4.41-9.67,10.14c0,5.73,4.02,10.14,9.67,10.14C169.34,55.82,172.03,54.15,173.74,51.71z"/>
	<path class="st0" d="M184.21,30.7h17.46v5.18h-11.38v6.93h9.67v5.18h-9.67v7.49h11.38v5.18h-17.46V30.7z"/>
	<path class="st0" d="M26.37,76.52h7.79l13.39,21.43V76.52h6.08v29.95h-7.79L32.45,84.95v21.52h-6.07V76.52z"/>
	<path class="st0" d="M70,76.52h7.96l11.34,29.95h-6.46l-2.87-7.79H67.98l-2.87,7.79h-6.46L70,76.52z M78.08,93.51l-4.11-11.25
		l-4.11,11.25H78.08z"/>
	<path class="st0" d="M88.25,76.52h24.56v5.52h-9.24v24.43h-6.07V82.04h-9.24V76.52z"/>
	<path class="st0" d="M118.57,76.52h6.07v29.95h-6.07V76.52z"/>
	<path class="st0" d="M162.67,91.49c0,8.56-6.46,15.83-15.87,15.83c-9.46,0-15.92-7.27-15.92-15.83c0-8.56,6.46-15.83,15.92-15.83
		C156.21,75.66,162.67,82.94,162.67,91.49z M156.43,91.49c0-5.73-4.02-10.14-9.63-10.14c-5.65,0-9.67,4.41-9.67,10.14
		c0,5.73,4.02,10.14,9.67,10.14C152.4,101.63,156.43,97.23,156.43,91.49z"/>
	<path class="st0" d="M168.9,76.52h7.79l13.39,21.43V76.52h6.08v29.95h-7.79l-13.39-21.52v21.52h-6.07V76.52z"/>
	<path class="st0" d="M212.52,76.52h7.96l11.34,29.95h-6.46l-2.87-7.79h-11.98l-2.87,7.79h-6.46L212.52,76.52z M220.61,93.51
		l-4.11-11.25l-4.11,11.25H220.61z"/>
	<path class="st0" d="M236.85,76.52h6.07v24.43h11.38v5.52h-17.46V76.52z"/>
	<path class="st0" d="M260.07,76.52h17.46v5.18h-11.38v6.93h9.67v5.18h-9.67v7.49h11.38v5.18h-17.46V76.52z"/>
	<path class="st0" d="M26.93,122.34h11.38c9.28,0,15.62,6.89,15.62,14.97s-6.33,14.98-15.62,14.98H26.93V122.34z M29.67,124.86v24.9
		h8.68c7.4,0,12.71-5.65,12.71-12.45c0-6.85-5.31-12.45-12.71-12.45H29.67z"/>
	<path class="st0" d="M61.27,122.34H76.5v2.44H64.01v11.08h10.78v2.4H64.01v11.6H76.5v2.44H61.27V122.34z"/>
	<path class="st0" d="M96.33,122.34h2.74v27.42h12.49v2.52H96.33V122.34z"/>
	<path class="st0" d="M127.34,122.34h3.72l12.32,29.95h-2.87l-3.85-9.41h-14.93l-3.85,9.41h-2.91L127.34,122.34z M135.68,140.44
		l-6.46-15.96l-6.5,15.96H135.68z"/>
	<path class="st0" d="M181.99,143.34l4.79,3.68c-2.74,3.72-7.19,6.12-12.62,6.12c-9.46,0-15.92-7.27-15.92-15.83
		c0-8.56,6.46-15.83,15.92-15.83c5.43,0,9.88,2.44,12.62,6.08l-4.79,3.72c-1.71-2.44-4.41-4.11-7.83-4.11
		c-5.65,0-9.67,4.41-9.67,10.14c0,5.73,4.02,10.14,9.67,10.14C177.59,147.45,180.28,145.78,181.99,143.34z"/>
	<path class="st0" d="M221.47,137.31c0,8.56-6.46,15.83-15.87,15.83c-9.46,0-15.92-7.27-15.92-15.83c0-8.56,6.46-15.83,15.92-15.83
		C215.01,121.48,221.47,128.75,221.47,137.31z M215.22,137.31c0-5.73-4.02-10.14-9.63-10.14c-5.65,0-9.67,4.41-9.67,10.14
		c0,5.73,4.02,10.14,9.67,10.14C211.2,147.45,215.22,143.05,215.22,137.31z"/>
	<path class="st0" d="M227.7,122.34h6.07v11.94h15.1v-11.94h6.08v29.95h-6.08v-12.49h-15.1v12.49h-6.07V122.34z"/>
	<path class="st0" d="M263.74,122.34h17.46v5.18h-11.38v6.93h9.67v5.18h-9.67v7.49h11.38v5.18h-17.46V122.34z M269.65,119.77
		l4.83-5.78h6.25l-5.56,5.78H269.65z"/>
	<path class="st0" d="M290.38,144.07c1.8,2.31,4.19,3.68,6.63,3.68c2.4,0,3.85-1.28,3.85-3.47c0-5.35-13.69-4.15-13.69-14.12
		c0-4.75,3.89-8.69,9.58-8.69c4.49,0,7.96,2.01,10.48,5.05l-4.45,3.98c-1.75-2.27-3.72-3.72-5.99-3.72c-2.1,0-3.46,1.37-3.46,3.12
		c0,5.35,13.69,4.11,13.69,14.25c-0.09,5.56-4.45,8.99-9.93,8.99c-5.05,0-8.47-1.84-11.12-5.01L290.38,144.07z"/>
	<path class="st0" d="M313.82,122.34h6.07v29.95h-6.07V122.34z"/>
	<path class="st0" d="M357.92,137.31c0,8.56-6.46,15.83-15.87,15.83c-9.46,0-15.92-7.27-15.92-15.83c0-8.56,6.46-15.83,15.92-15.83
		C351.46,121.48,357.92,128.75,357.92,137.31z M351.67,137.31c0-5.73-4.02-10.14-9.63-10.14c-5.65,0-9.67,4.41-9.67,10.14
		c0,5.73,4.02,10.14,9.67,10.14C347.65,147.45,351.67,143.05,351.67,137.31z"/>
	<path class="st0" d="M364.15,122.34h7.79l13.39,21.43v-21.43h6.08v29.95h-7.79l-13.39-21.52v21.52h-6.07V122.34z"/>
	<path class="st0" d="M26.93,168.15h11.38c9.28,0,15.62,6.89,15.62,14.97S47.6,198.1,38.31,198.1H26.93V168.15z M29.67,170.68v24.9
		h8.68c7.4,0,12.71-5.65,12.71-12.45c0-6.85-5.31-12.45-12.71-12.45H29.67z"/>
	<path class="st0" d="M61.27,168.15H76.5v2.44H64.01v11.08h10.78v2.4H64.01v11.6H76.5v2.44H61.27V168.15z"/>
	<path class="st0" d="M84.79,192.16c2.27,2.87,4.79,4.28,7.83,4.28c3.81,0,5.99-2.57,5.99-5.65c0-7.1-14.46-6.55-14.46-15.87
		c0-4.06,3.34-7.62,8.13-7.62c4.02,0,6.93,1.88,8.94,4.79l-2.1,1.71c-1.75-2.65-4.02-4.02-6.8-4.02c-3.25,0-5.35,2.23-5.35,5.13
		c0,7.23,14.46,6.63,14.46,15.92c0,4.75-3.68,8.09-8.77,8.09c-4.06,0-7.27-1.63-9.88-4.92L84.79,192.16z"/>
	<path class="st0" d="M117.84,168.15h24.56v5.52h-9.24v24.43h-6.07v-24.43h-9.24V168.15z"/>
	<path class="st0" d="M148.16,168.15h17.46v5.18h-11.38v6.93h9.67v5.18h-9.67v7.49h11.38v5.18h-17.46V168.15z"/>
	<path class="st0" d="M173.09,168.15h9.16c6.59,0,10.65,3.38,10.65,8.94c0,3.59-1.75,6.29-4.79,7.75l9.41,13.26h-7.27l-7.96-12.11
		h-3.12v12.11h-6.07V168.15z M179.16,173.33v7.49h3.42c2.57,0,4.07-1.37,4.07-3.81c0-2.27-1.5-3.68-4.07-3.68H179.16z"/>
	<path class="st0" d="M201.7,168.15h9.16c6.59,0,10.65,3.38,10.65,8.94c0,3.59-1.75,6.29-4.79,7.75l9.41,13.26h-7.27l-7.96-12.11
		h-3.12v12.11h-6.07V168.15z M207.77,173.33v7.49h3.42c2.57,0,4.07-1.37,4.07-3.81c0-2.27-1.5-3.68-4.07-3.68H207.77z"/>
	<path class="st0" d="M230.3,168.15h6.07v29.95h-6.07V168.15z"/>
	<path class="st0" d="M242.1,168.15h24.56v5.52h-9.24v24.43h-6.07v-24.43h-9.24V168.15z"/>
	<path class="st0" d="M300.28,183.13c0,8.56-6.46,15.83-15.87,15.83c-9.46,0-15.92-7.27-15.92-15.83c0-8.56,6.46-15.83,15.92-15.83
		C293.82,167.3,300.28,174.57,300.28,183.13z M294.03,183.13c0-5.73-4.02-10.14-9.63-10.14c-5.65,0-9.67,4.41-9.67,10.14
		c0,5.73,4.02,10.14,9.67,10.14C290.01,193.27,294.03,188.86,294.03,183.13z"/>
	<path class="st0" d="M306.51,168.15h6.07v29.95h-6.07V168.15z"/>
	<path class="st0" d="M321.39,168.15h9.16c6.59,0,10.65,3.38,10.65,8.94c0,3.59-1.75,6.29-4.79,7.75l9.41,13.26h-7.27l-7.96-12.11
		h-3.12v12.11h-6.07V168.15z M327.46,173.33v7.49h3.42c2.57,0,4.07-1.37,4.07-3.81c0-2.27-1.5-3.68-4.07-3.68H327.46z"/>
	<path class="st0" d="M350,168.15h17.46v5.18h-11.38v6.93h9.67v5.18h-9.67v7.49h11.38v5.18H350V168.15z"/>
	<path class="st0" d="M376.64,189.89c1.8,2.31,4.19,3.68,6.63,3.68c2.4,0,3.85-1.28,3.85-3.47c0-5.35-13.69-4.15-13.69-14.12
		c0-4.75,3.89-8.69,9.58-8.69c4.49,0,7.96,2.01,10.48,5.05l-4.45,3.98c-1.75-2.27-3.72-3.72-5.99-3.72c-2.1,0-3.46,1.37-3.46,3.12
		c0,5.35,13.69,4.11,13.69,14.25c-0.09,5.56-4.45,8.99-9.93,8.99c-5.05,0-8.47-1.84-11.12-5.01L376.64,189.89z"/>
</g>
</svg>
