<?xml version="1.0" encoding="utf-8"?>
<!-- Generator: Adobe Illustrator 23.0.6, SVG Export Plug-In . SVG Version: 6.00 Build 0)  -->
<svg version="1.1" id="Calque_1" xmlns="http://www.w3.org/2000/svg" xmlns:xlink="http://www.w3.org/1999/xlink" x="0px" y="0px"
	 viewBox="0 0 14.2 14.2" style="enable-background:new 0 0 14.2 14.2;" xml:space="preserve">
<style type="text/css">
	.st0{fill:#960000;}
</style>
<g>
	<path class="st0" d="M4.2,3.1C4.2,4.7,5.5,6,7.1,6S10,4.7,10,3.1S8.7,0.2,7.1,0.2S4.2,1.5,4.2,3.1z"/>
	<path class="st0" d="M7.1,6.5c-2.6,0-4.8,2.1-4.8,4.8v1.5C3.4,13.5,5.2,14,7.1,14s3.7-0.4,4.8-1.1v-1.5C11.9,8.7,9.7,6.5,7.1,6.5z"
		/>
</g>
<text transform="matrix(1 0 0 1 -42.9134 59.5866)" style="font-family:'HelveticaLTStd-Bold'; font-size:5px;">Created by mikicon</text>
<text transform="matrix(1 0 0 1 -42.9134 64.5866)" style="font-family:'HelveticaLTStd-Bold'; font-size:5px;">from the Noun Project</text>
</svg>
