<?xml version="1.0" encoding="utf-8"?>
<!-- Generator: Adobe Illustrator 23.0.6, SVG Export Plug-In . SVG Version: 6.00 Build 0)  -->
<svg version="1.1" id="Calque_1" xmlns="http://www.w3.org/2000/svg" xmlns:xlink="http://www.w3.org/1999/xlink" x="0px" y="0px"
	 viewBox="0 0 14.2 14.2" style="enable-background:new 0 0 14.2 14.2;" xml:space="preserve">
<style type="text/css">
	.st0{fill:#960000;}
</style>
<g>
	<path class="st0" d="M12.9,12.3c0,0.4-0.3,0.7-0.7,0.7H2c-0.4,0-0.7-0.3-0.7-0.7V2c0-0.4,0.3-0.7,0.7-0.7h4.1V0.1H2
		C0.9,0.1,0.1,0.9,0.1,2v10.3c0,1,0.8,1.9,1.9,1.9h10.3c1,0,1.9-0.8,1.9-1.9V8.2h-1.2L12.9,12.3L12.9,12.3z"/>
	<polygon class="st0" points="8.2,0.1 8.2,1.3 12,1.3 7.1,6.2 8,7.1 12.9,2.2 12.9,6 14.1,6 14.1,0.1 	"/>
</g>
</svg>
