<?xml version="1.0" encoding="utf-8"?>
<!-- Generator: Adobe Illustrator 23.0.6, SVG Export Plug-In . SVG Version: 6.00 Build 0)  -->
<svg version="1.1" id="Calque_1" xmlns="http://www.w3.org/2000/svg" xmlns:xlink="http://www.w3.org/1999/xlink" x="0px" y="0px"
	 viewBox="0 0 14.2 14.2" style="enable-background:new 0 0 14.2 14.2;" xml:space="preserve">
<style type="text/css">
	.st0{fill:#960000;}
</style>
<g>
	<path class="st0" d="M14,6.1l-2.1-1.9V1.1c0-0.2-0.2-0.4-0.4-0.4h-1.1c-0.2,0-0.4,0.2-0.4,0.4v1.3L7.5,0.2C7.3,0,7,0,6.7,0.2
		l-6.5,6C0,6.4,0,6.7,0.2,7C0.4,7.2,0.8,7.2,1,7l6.1-5.6L13.2,7c0.4,0.3,0.7,0.1,0.8,0C14.2,6.8,14.2,6.4,14,6.1z"/>
	<path class="st0" d="M7.1,2.2L1.4,7.5v6.7h4.2v-3.8h2.9v3.8h4.2V7.5C12.8,7.5,7.1,2.2,7.1,2.2z"/>
</g>
</svg>
