<?xml version="1.0" encoding="utf-8"?>
<!-- Generator: Adobe Illustrator 23.0.6, SVG Export Plug-In . SVG Version: 6.00 Build 0)  -->
<svg version="1.1"
	 id="Calque_1" xmlns:cc="http://creativecommons.org/ns#" xmlns:dc="http://purl.org/dc/elements/1.1/" xmlns:inkscape="http://www.inkscape.org/namespaces/inkscape" xmlns:rdf="http://www.w3.org/1999/02/22-rdf-syntax-ns#" xmlns:sodipodi="http://sodipodi.sourceforge.net/DTD/sodipodi-0.dtd" xmlns:svg="http://www.w3.org/2000/svg"
	 xmlns="http://www.w3.org/2000/svg" xmlns:xlink="http://www.w3.org/1999/xlink" x="0px" y="0px" viewBox="0 0 15.2 14.2"
	 style="enable-background:new 0 0 15.2 14.2;" xml:space="preserve">
<style type="text/css">
	.st0{fill:#960000;}
</style>
<g transform="translate(-549.72662,-586.27646)">
	<path class="st0" d="M557.3,591.7c-0.5,0-0.9,0.1-1.3,0.2c-2.1,0.8-5,1.8-5,4.5c0,2.7-0.4,4,1.1,4h10.3c1.5,0,1.1-1.3,1.1-4
		c0-2.7-2.9-3.7-5-4.5C558.2,591.8,557.8,591.7,557.3,591.7L557.3,591.7z M557.3,594.4c1.1,0,2,0.9,2,2c0,1.1-0.9,2-2,2s-2-0.9-2-2
		C555.4,595.2,556.2,594.4,557.3,594.4z"/>
	<path class="st0" d="M557.3,586.3c-2,0-5.6,1.7-6.1,1.9c-0.9,0.5-1.4,1.5-1.4,2.2c0,1.3,1.1,2.4,2.4,2.4c1.3,0,2.3-1,2.4-2.3
		c1-0.4,2-0.7,2.8-0.7c0.8,0,1.8,0.3,2.8,0.7c0,1.3,1.1,2.3,2.4,2.3c1.3,0,2.4-1.1,2.4-2.4c0-1-0.6-1.8-1.4-2.2
		C563.5,588.2,559.5,586.3,557.3,586.3L557.3,586.3z"/>
</g>
</svg>
